<svg width="233" height="331" xmlns="http://www.w3.org/2000/svg" xmlns:xlink="http://www.w3.org/1999/xlink" xml:space="preserve" overflow="hidden"><defs><clipPath id="clip0"><rect x="-181" y="1725" width="233" height="331"/></clipPath></defs><g clip-path="url(#clip0)" transform="translate(181 -1725)"><g><g><g><path d="M125.417 103.542 121.042 107.917 20.4167 107.917 14.5833 102.083 14.5833 72.9166 20.4167 67.0833 121.042 67.0833 125.417 71.4583 125.417 103.542ZM5.83333 58.3333 5.83333 116.667 134.167 116.667 134.167 58.3333 5.83333 58.3333Z" transform="matrix(1.00714 0 0 1 -135 1725)"/><path d="M81.6666 87.4999C81.6666 95.5541 76.4433 102.083 70 102.083 63.5566 102.083 58.3333 95.5541 58.3333 87.4999 58.3333 79.4458 63.5566 72.9166 70 72.9166 76.4433 72.9166 81.6666 79.4458 81.6666 87.4999Z" transform="matrix(1.00714 0 0 1 -135 1725)"/><path d="M37.9166 87.4999C37.9166 89.9162 35.9579 91.8749 33.5416 91.8749 31.1254 91.8749 29.1666 89.9162 29.1666 87.4999 29.1666 85.0837 31.1254 83.1249 33.5416 83.1249 35.9579 83.1249 37.9166 85.0837 37.9166 87.4999Z" transform="matrix(1.00714 0 0 1 -135 1725)"/><path d="M110.833 87.4999C110.833 89.9162 108.874 91.8749 106.458 91.8749 104.042 91.8749 102.083 89.9162 102.083 87.4999 102.083 85.0837 104.042 83.1249 106.458 83.1249 108.874 83.1249 110.833 85.0837 110.833 87.4999Z" transform="matrix(1.00714 0 0 1 -135 1725)"/><path d="M96.1041 30.1875 98.2916 35.7291 107.042 33.9791 100.917 18.6667 22.4583 50.75 67.375 41.8541Z" transform="matrix(1.00714 0 0 1 -135 1725)"/><path d="M88.5208 52.5 111.562 47.9791 112.583 52.5 121.479 52.5 118.562 37.625 43.75 52.5Z" transform="matrix(1.00714 0 0 1 -135 1725)"/></g></g></g><path d="M31.4407 1963.43C31.4295 1967.21 28.3663 1970.28 24.5854 1970.28L4.02948 1970.28C0.242188 1970.28-2.83153 1967.22-2.84306 1963.43L-2.84306 1956.57C-2.83153 1952.78 0.242188 1949.72 4.02948 1949.72L24.5854 1949.72C28.3663 1949.73 31.4295 1952.79 31.4407 1956.57L31.4407 1963.43ZM-145.706 1929.14-125.834 1881.83C-124.78 1879.34-122.349 1877.72-119.649 1877.7L-10.0215 1877.7C-7.32158 1877.72-4.8904 1879.34-3.83624 1881.83L16.7233 1929.14ZM-126.178 1963.43C-126.189 1967.21-129.25 1970.27-133.03 1970.28L-153.589 1970.28C-157.369 1970.27-160.429 1967.21-160.441 1963.43L-160.441 1956.57C-160.429 1952.79-157.369 1949.73-153.589 1949.72L-133.03 1949.72C-129.25 1949.73-126.189 1952.79-126.178 1956.57L-126.178 1963.43ZM-119.305 1864C-127.607 1863.92-135.103 1868.96-138.153 1876.69L-160.441 1929.14C-171.782 1929.18-180.968 1938.37-181 1949.72L-181 2004.57C-180.977 2012.14-174.853 2018.26-167.293 2018.28L-160.441 2018.28-160.441 2042.28C-160.42 2049.85-154.298 2055.98-146.737 2056L-139.864 2056C-132.304 2055.98-126.181 2049.85-126.161 2042.28L-126.161 2018.28-2.79832 2018.28-2.79832 2042.28C-2.77777 2049.84 3.33069 2055.96 10.8815 2056L17.7335 2056C25.2954 2055.98 31.4201 2049.85 31.4407 2042.28L31.4407 2018.28 38.2927 2018.28C45.8532 2018.26 51.9772 2012.14 51.9999 2004.57L51.9999 1949.72C51.9682 1938.37 42.7817 1929.18 31.4407 1929.14L31.4407 1929.14 9.16678 1876.69C6.11795 1868.96-1.37621 1863.92-9.67773 1864Z" fill-rule="evenodd"/></g></svg>