<svg width="96" height="96" xmlns="http://www.w3.org/2000/svg" xmlns:xlink="http://www.w3.org/1999/xlink" xml:space="preserve" overflow="hidden"><g transform="translate(-833 -481)"><path d="M883 511 879 511C876.8 511 875 509.2 875 507L875 499C875 496.8 876.8 495 879 495L883 495C885.2 495 887 496.8 887 499L887 507C887 509.2 885.2 511 883 511Z"/><path d="M913 531 889 531 889 527 913 527 913 531ZM913 543 889 543 889 539 913 539 913 543ZM913 555 889 555 889 551 913 551 913 555ZM881 555 849 555 849 547C849 545.8 849.6 544.6 850.6 543.8 852.8 542.2 855.6 540.8 858.4 540 860.6 539.4 862.8 539 865 539 867.4 539 869.6 539.4 871.6 540 874.4 540.8 877.2 542 879.4 543.8 880.4 544.6 881 545.8 881 547L881 555ZM865 521C869.4 521 873 524.6 873 529 873 533.4 869.4 537 865 537 860.6 537 857 533.4 857 529 857 524.6 860.6 521 865 521ZM917 507 891 507C891 511.4 887.4 515 883 515L879 515C874.6 515 871 511.4 871 507L845 507C842.8 507 841 508.8 841 511L841 559C841 561.2 842.8 563 845 563L917 563C919.2 563 921 561.2 921 559L921 511C921 508.8 919.2 507 917 507Z"/></g></svg>