<svg width="457" height="399" xmlns="http://www.w3.org/2000/svg" xmlns:xlink="http://www.w3.org/1999/xlink" xml:space="preserve" overflow="hidden"><g transform="translate(-2007 -1919)"><g><g><g><path d="M235.354 223.5 235.354 214.5 226.417 214.5 226.417 122.146 235.354 122.146 235.354 107.25 250.25 107.25 250.25 101.292 143 35.75 35.75 101.292 35.75 107.25 50.6458 107.25 50.6458 122.146 59.5833 122.146 59.5833 214.5 50.6458 214.5 50.6458 223.5 29.7917 238.396 29.7917 250.25 256.208 250.25 256.208 238.399ZM220.458 214.5 208.542 214.5 208.542 122.146 220.458 122.146ZM83.4167 122.146 107.25 122.146 107.25 214.5 83.4167 214.5ZM113.208 122.146 125.125 122.146 125.125 214.5 113.208 214.5ZM131.083 122.146 154.917 122.146 154.917 214.5 131.083 214.5ZM160.875 122.146 172.792 122.146 172.792 214.5 160.875 214.5ZM178.75 122.146 202.583 122.146 202.583 214.5 178.75 214.5ZM47.2675 101.235 143 42.7421 238.733 101.235C238.748 101.24 238.757 101.257 238.752 101.273 238.749 101.282 238.741 101.289 238.733 101.292L47.2853 101.292C47.2675 101.289 47.2547 101.273 47.257 101.255 47.2582 101.247 47.2618 101.24 47.2675 101.235ZM56.6042 107.25 229.396 107.25 229.396 116.188 56.6042 116.188ZM65.5417 122.146 77.4583 122.146 77.4583 214.5 65.5417 214.5ZM56.6042 226.566 56.6042 220.458 229.396 220.458 229.396 226.566 231.889 228.353 233.355 229.402 52.6449 229.402 54.1106 228.353ZM250.25 244.292 35.75 244.292 35.75 241.467 44.3032 235.354 241.706 235.354 250.25 241.467Z" transform="matrix(1 0 0 1.0035 2007 1919)"/></g></g></g><g><g><g><path d="M67.0833 40.8333 212.917 40.8333 212.917 239.167 67.0833 239.167 67.0833 40.8333ZM49.5833 256.666 230.417 256.666 230.417 23.3333 49.5833 23.3333 49.5833 256.666Z" transform="matrix(1 0 0 1 2184 2038)"/><path d="M142.917 192.5 195.417 192.5 195.417 204.167 142.917 204.167Z" transform="matrix(1 0 0 1 2184 2038)"/><path d="M84.5833 64.1666 195.417 64.1666 195.417 75.8333 84.5833 75.8333Z" transform="matrix(1 0 0 1 2184 2038)"/><path d="M84.5833 87.4999 195.417 87.4999 195.417 99.1666 84.5833 99.1666Z" transform="matrix(1 0 0 1 2184 2038)"/><path d="M84.5833 110.833 195.417 110.833 195.417 122.5 84.5833 122.5Z" transform="matrix(1 0 0 1 2184 2038)"/><path d="M84.5833 134.167 140 134.167 140 145.833 84.5833 145.833Z" transform="matrix(1 0 0 1 2184 2038)"/><path d="M93.6249 218.75 105 207.375 116.375 218.75 125.417 209.708 114.042 198.333 125.417 186.958 116.375 177.917 105 189.292 93.6249 177.917 84.5833 186.958 95.9583 198.333 84.5833 209.708Z" transform="matrix(1 0 0 1 2184 2038)"/></g></g></g></g></svg>